PathFileType	4	(X/Y/Z)	C:\Users\WrightLab\Desktop\Jo\P1_boxCal34.trc
DataRate	CameraRate	NumFrames	NumMarkers	Units	OrigDataRate	OrigDataStartFrame	OrigNumFrames
100.00	100.00	       36	19	mm	100.00	477	       544
Frame#	Time	Headset_Front			Headset_Back			Headset_Left			Headset_Right			Left_Shoulder			Right_Shoulder			Sternum			C7			Left Elbow			Right Elbow			Left Wrist			Right Wrist			Left ASIS			Right ASIS			S2			Left Knee			Right Knee			Left Ankle			Right Ankle			
		X1	Y1	Z1	X2	Y2	Z2	X3	Y3	Z3	X4	Y4	Z4	X5	Y5	Z5	X6	Y6	Z6	X7	Y7	Z7	X8	Y8	Z8	X9	Y9	Z9	X10	Y10	Z10	X11	Y11	Z11	X12	Y12	Z12	X13	Y13	Z13	X14	Y14	Z14	X15	Y15	Z15	X16	Y16	Z16	X17	Y17	Z17	X18	Y18	Z18	X19	Y19	Z19	

477	4.760																																		-218.38510	813.64038	2062.49976										-394.20856	512.95764	2550.99634	-259.10712	496.67212	2210.98364							
478	4.770																																		-213.15126	815.23547	2065.52124										-398.47592	512.30035	2550.30493	-258.12015	498.11603	2218.71729							
479	4.780																																		-207.50444	815.38574	2074.41040										-403.28326	511.86060	2550.10645	-256.67175	499.01401	2224.25952							
480	4.790																																		-199.97763	815.91650	2079.26074										-408.25525	511.26724	2549.55762	-254.27655	500.23004	2228.26636							
481	4.800																																		-194.31718	816.75787	2086.34521										-412.52615	510.27008	2548.06323	-251.31764	500.16846	2237.26733							
482	4.810																																		-188.28174	817.03943	2094.48560										-416.24844	509.28024	2546.38696	-247.88786	501.88333	2241.50513							
483	4.820																																		-182.11223	817.14722	2104.16382										-420.05063	508.93805	2545.04834	-243.94698	502.83041	2248.42090							
484	4.830																																		-177.12846	818.23059	2110.51416										-423.78360	509.39523	2542.99902	-239.46657	504.93726	2251.00952							
485	4.840																																		-171.52655	819.06128	2118.98340										-427.41541	509.95450	2541.81104	-234.79538	504.87244	2263.87646							
486	4.850																																		-166.16913	819.76300	2125.81543										-430.60736	510.70163	2540.74219	-229.78276	505.24860	2267.93872							
487	4.860																																		-160.02905	820.22131	2134.28296										-434.17819	511.50119	2539.90845	-225.00299	506.52402	2273.71631							
488	4.870																																		-154.76714	821.50653	2141.49756										-437.86072	511.38651	2537.98633	-220.29478	506.27649	2284.50342							
489	4.880																																		-149.50279	822.74310	2147.03906										-441.36774	510.90277	2535.20288	-215.79999	506.85916	2287.84375							
490	4.890																																		-143.56601	824.11328	2154.35791										-445.28104	510.89679	2533.62549	-211.73003	507.29050	2293.04663							
491	4.900																																		-138.60995	824.63568	2157.74365													-208.12848	505.70093	2305.91650							
492	4.910																																		-132.35892	826.93695	2166.83154													-205.45135	506.45575	2311.62476							
493	4.920																																		-127.19231	827.21960	2170.40454													-203.02992	505.61945	2314.59009							
494	4.930																																		-120.85355	828.04181	2175.84009													-199.23720	504.40985	2320.61499							
495	4.940																																		-115.31323	829.30615	2180.84912													-196.99493	504.01166	2321.92969							
496	4.950																																		-109.32260	830.08984	2186.21631													-192.65913	503.93973	2324.38940							
497	4.960																																		-103.25591	830.89777	2191.83862													-188.10555	503.80869	2326.91992							
498	4.970																																		-97.40794	831.84369	2198.43774													-183.09711	503.80258	2329.00000							
499	4.980																																		-91.42667	832.67615	2202.79785													-178.39993	503.39789	2332.20972							
500	4.990																																		-84.79973	833.40674	2210.22729													-174.74287	503.97321	2332.40820							
501	5.000																																		-79.04299	833.04645	2215.02344													-170.64070	504.39926	2333.57349							
502	5.010																																		-72.35901	833.80347	2222.35107													-167.38390	503.99606	2337.86670							
503	5.020																																		-65.95559	833.46973	2229.25220													-164.20297	504.58057	2340.57983							
504	5.030																																		-59.82315	834.39740	2235.70435													-162.90302	504.86926	2344.03809							
505	5.040																																		-53.23268	834.01868	2243.78540													-161.50500	505.16788	2347.79175							
506	5.050																																		-47.51347	834.87891	2249.53979													-160.97504	505.01035	2350.13208							
507	5.060																																		-41.61037	835.63977	2257.67236													-159.08183	505.67227	2355.01294							
508	5.070																																		-35.38627	835.24786	2266.03320													-158.51114	505.91345	2355.89282							
509	5.080																																		-30.73538	835.31445	2270.66748													-156.61713	507.18530	2360.14746							
510	5.090																																		-24.99794	836.15210	2278.76709													-154.88884	507.38095	2362.62549							
511	5.100																																		-20.59537	836.94360	2285.49316													-152.46687	508.59839	2366.52759							
512	5.110																																		-15.13063	836.59564	2294.39697													-151.37814	509.16235	2365.95020							
